<svg width="28" height="28" viewBox="0 0 28 28" fill="none" xmlns="http://www.w3.org/2000/svg">
<path d="M16.3333 13.4283H19.1567C19.3102 13.4292 19.4624 13.3997 19.6046 13.3417C19.7467 13.2836 19.876 13.1981 19.985 13.0899L25.3283 7.74661C25.4377 7.63815 25.5245 7.50912 25.5837 7.36695C25.6429 7.22478 25.6734 7.07229 25.6734 6.91827C25.6734 6.76426 25.6429 6.61177 25.5837 6.4696C25.5245 6.32743 25.4377 6.1984 25.3283 6.08994L22.505 3.26661C22.3966 3.15726 22.2675 3.07046 22.1253 3.01123C21.9832 2.952 21.8307 2.92151 21.6767 2.92151C21.5227 2.92151 21.3702 2.952 21.228 3.01123C21.0858 3.07046 20.9568 3.15726 20.8483 3.26661L15.505 8.60994C15.2918 8.83351 15.171 9.12938 15.1667 9.43827V12.2616C15.1667 12.571 15.2896 12.8678 15.5084 13.0866C15.7272 13.3054 16.0239 13.4283 16.3333 13.4283ZM17.5 9.92827L21.6767 5.75161L22.8433 6.91827L18.6667 11.0949H17.5V9.92827ZM24.5 12.2616C24.1906 12.2616 23.8938 12.3845 23.6751 12.6033C23.4563 12.8221 23.3333 13.1189 23.3333 13.4283V21.5949C23.3333 21.9044 23.2104 22.2011 22.9916 22.4199C22.7728 22.6387 22.4761 22.7616 22.1667 22.7616H5.83334C5.52392 22.7616 5.22718 22.6387 5.00839 22.4199C4.78959 22.2011 4.66668 21.9044 4.66668 21.5949V10.3833L11.5267 17.2549C11.8522 17.5848 12.2401 17.8466 12.6677 18.0254C13.0952 18.2041 13.5541 18.2961 14.0175 18.2961C14.4809 18.2961 14.9398 18.2041 15.3674 18.0254C15.7949 17.8466 16.1828 17.5848 16.5083 17.2549C16.7221 17.0369 16.8418 16.7437 16.8418 16.4383C16.8418 16.1329 16.7221 15.8397 16.5083 15.6216C16.3997 15.5105 16.2699 15.4222 16.1267 15.3619C15.9834 15.3016 15.8296 15.2706 15.6742 15.2706C15.5188 15.2706 15.3649 15.3016 15.2217 15.3619C15.0784 15.4222 14.9487 15.5105 14.84 15.6216C14.6219 15.8354 14.3287 15.9551 14.0233 15.9551C13.718 15.9551 13.4248 15.8354 13.2067 15.6216L6.31168 8.73827H11.6667C11.9761 8.73827 12.2728 8.61536 12.4916 8.39657C12.7104 8.17777 12.8333 7.88103 12.8333 7.57161C12.8333 7.26219 12.7104 6.96544 12.4916 6.74665C12.2728 6.52786 11.9761 6.40494 11.6667 6.40494H5.83334C4.90509 6.40494 4.01485 6.77369 3.35847 7.43007C2.70209 8.08644 2.33334 8.97668 2.33334 9.90494V21.5716C2.33334 22.4999 2.70209 23.3901 3.35847 24.0465C4.01485 24.7029 4.90509 25.0716 5.83334 25.0716H22.1667C23.0949 25.0716 23.9852 24.7029 24.6416 24.0465C25.2979 23.3901 25.6667 22.4999 25.6667 21.5716V13.4049C25.6667 13.0955 25.5438 12.7988 25.325 12.58C25.1062 12.3612 24.8094 12.2383 24.5 12.2383V12.2616Z" fill="#275BA8"/>
</svg>
