<svg width="28" height="28" viewBox="0 0 28 28" fill="none" xmlns="http://www.w3.org/2000/svg">
<path d="M14 2.33337C11.7372 2.33767 9.52454 2.9999 7.63144 4.2394C5.73834 5.4789 4.24655 7.24217 3.33777 9.31444C2.42899 11.3867 2.14244 13.6785 2.51304 15.9108C2.88363 18.143 3.89536 20.2193 5.42501 21.8867C6.5175 23.0709 7.84344 24.016 9.31927 24.6624C10.7951 25.3089 12.3888 25.6426 14 25.6426C15.6112 25.6426 17.2049 25.3089 18.6807 24.6624C20.1566 24.016 21.4825 23.0709 22.575 21.8867C24.1047 20.2193 25.1164 18.143 25.487 15.9108C25.8576 13.6785 25.571 11.3867 24.6622 9.31444C23.7535 7.24217 22.2617 5.4789 20.3686 4.2394C18.4755 2.9999 16.2628 2.33767 14 2.33337ZM14 23.3334C11.5832 23.3297 9.26207 22.3887 7.52501 20.7084C8.05239 19.4245 8.94954 18.3264 10.1025 17.5536C11.2554 16.7808 12.612 16.3681 14 16.3681C15.388 16.3681 16.7446 16.7808 17.8975 17.5536C19.0505 18.3264 19.9476 19.4245 20.475 20.7084C18.7379 22.3887 16.4168 23.3297 14 23.3334ZM11.6667 11.6667C11.6667 11.2052 11.8035 10.7541 12.0599 10.3704C12.3163 9.98666 12.6807 9.68759 13.1071 9.51099C13.5334 9.33438 14.0026 9.28818 14.4552 9.37821C14.9078 9.46824 15.3236 9.69047 15.6499 10.0168C15.9762 10.3431 16.1985 10.7589 16.2885 11.2115C16.3785 11.6641 16.3323 12.1333 16.1557 12.5596C15.9791 12.986 15.6801 13.3504 15.2963 13.6068C14.9126 13.8632 14.4615 14 14 14C13.3812 14 12.7877 13.7542 12.3501 13.3166C11.9125 12.879 11.6667 12.2855 11.6667 11.6667ZM22.0617 18.6667C21.0193 16.8838 19.415 15.4969 17.5 14.7234C18.094 14.0498 18.4811 13.2191 18.6147 12.331C18.7484 11.443 18.6229 10.5352 18.2534 9.71662C17.8839 8.89807 17.286 8.20353 16.5316 7.71633C15.7771 7.22914 14.8981 6.97 14 6.97C13.1019 6.97 12.2229 7.22914 11.4684 7.71633C10.714 8.20353 10.1161 8.89807 9.74663 9.71662C9.37712 10.5352 9.25166 11.443 9.38529 12.331C9.51892 13.2191 9.90598 14.0498 10.5 14.7234C8.58504 15.4969 6.98072 16.8838 5.93834 18.6667C5.10761 17.2517 4.66868 15.6409 4.66667 14C4.66667 11.5247 5.65 9.15072 7.40034 7.40038C9.15068 5.65004 11.5247 4.66671 14 4.66671C16.4754 4.66671 18.8493 5.65004 20.5997 7.40038C22.35 9.15072 23.3333 11.5247 23.3333 14C23.3313 15.6409 22.8924 17.2517 22.0617 18.6667Z" fill="#275BA8"/>
</svg>
